<svg transform="translate(-900,-1100) scale(4)" id="bam-evp-field-svg" width="500" height="500" version="1.1" xmlns="http://www.w3.org/2000/svg" xmlns:xlink="http://www.w3.org/1999/xlink" x="0px" y="0px" viewBox="0 0 250 250" style="enable-background:new 0 0 250 250; background-color:#141414;" xml:space="preserve">
  <style type="text/css"> .st0{fill:#5B5B5B;}.st1{fill:#7F7F7F;}.st2{fill:#FFEC5F;}.st3{fill:#b2dfdb;}.st4{font-family:'Roboto Condensed';}.st5{font-size:11px;}.st6{fill:#9b7653; stroke: #e2e2e2; stroke-width: 0.5;}.st7{fill:#D3D3D3;stroke:#FFFFFF;stroke-width:0.75;}.st8{fill:none;stroke:#c2c2c2;stroke-width:0.75;}.st9{fill:#D3D3D3}
  </style>
  <g id="field" transform="translate(0 0) scale(1)">
    <path id="Outfield_1_" class="st6" d="M60.1,148.8l-17.3-27.2L20.9,99.8l1.3,0.6l0.5-3.1l2-1.6l2-1.6l2-1.6l2-1.6l2-1.6l2-1.6l2-1.6l2-1.6l2-1.6l2-1.6l2-1.6l2-1.6l2-1.7l2-1.7l3.5,1l2.6-0.5l2.1-1.5l2.2-1.3l2.2-1.3l2.2-1.3l2.2-1.3l2.2-1.3l2.2-1.3l2.2-1.4l2.3-1.4l2.3-1.4l2.3-1.4l2.3-1.4l2.3-1.4l2.4-1.4l2.4-1.4l2.4-1.5l2.4-1.5l2.5-1.5l2.5-1.5l2.5-1.5l2.6-1.6l2.6-1.6l2.7-1.6l2.7-1.4l2.8-1.1l2.8-1l2.9-0.8l2.9-0.5l2.9-0.5l2.9-0.5l2.9-0.3l2.9-0.1l2.9-0.1l2.9,0.5l2.9,0.7l2.9,0.5l2.8,0.8l2.8,0.8l2.8,1l2.7,1.4L162,43l2.6,1.6l2.5,1.6l2.4,1.8l2.3,2l2.3,1.9l2.2,2.1l2.2,2.1l2.1,2.1l2.1,2.1l2.1,2l2,2l2,2l2,2l2,1.9l1.9,1.9l1.9,1.9l1.9,1.9l1.9,1.9l2.6,0.7l4-1.4l2.9,0.3l1.9,2l1.7,2.1l1.7,2.1l1.7,2.1l1.7,2.1l1.7,2.1l1.7,2l1.6,2l1.6,2l1.6,2l1.6,2l-22.2,22.3c0,0-41.7,66.6-45.4,73.2c-3,5.5-13.3,13.2-25.9,24.6c-7.3,6.6-15.2,7.5-22.9-1.7L60.1,148.8z">
    </path>
    <path id="grass_1_" class="st3" d="M122.5,217.3c-0.4,0-2.4-1-4.1-2.9l-52.6-70c0,0-30.4-35.1-29.8-40.9c0.5-5.8,22.3-20.3,22.3-20.3l7.5-0.9l3.2-2.3l1.9-1.1l44-28l2.2-1.1l2.2-0.9l2.4-0.8l2.2-0.6l5.4-0.9l2.6-0.4l2.4-0.2l4.8-0.1l1.8,0.3l2.8,0.7l2.7,0.5l4,1.5l2.1,0.8l2.1,1.1l2.4,1.3l2.4,1.5l2.2,1.4l2,1.5l4.2,3.6l2,1.9l23.9,24.2c0,0,2.9,2.6,4.8,3.1s4.4,0.3,5.5,0.7s10,12.8,10,14.9c0,0.5-3.5,4.4-3.5,4.4l-16.7,16.1l-0.4,0.7c-4.5,6.8-35.7,61-39.4,67.7c-1.9,3.3-7.2,7.6-15.2,14.9c-2,1.8-5.1,3.7-7.3,5.7C126.4,218.6,123.6,217.3,122.5,217.3z">
    </path>
    <path id="infield_sand_1_" class="st6" d="M163,165.8c-0.2,0.2-6-28.1-37.1-28.1c-33.4,0-39,25.5-39.5,28.1l-0.4,0.4l14.8,14.8l0.7-0.7l18.2,17.9c-0.7,1-1.1,2.2-1.1,3.6c0,1.2,0.4,2.4,1,3.4c0,0,0,0,0,0.1c1.1,1.8,3.1,3,5.4,3c3.5,0,6.4-2.9,6.4-6.4c0-1.5-0.5-2.8-1.3-3.9l18.7-17.7l1.5,0.5l13.5-13.5L163,165.8z M128.6,196.7c-1-0.7-2.3-1.2-3.7-1.2c-1.5,0-2.8,0.5-3.9,1.3l-17.6-18.2c0,0,6.2-5.6,2.7-10.2l17.4-14.5c0.5-0.3,1.1-0.4,1.8-0.4c0.9,0,1.7,0.5,2.3,1.1c0,0,0.1,0,0.1,0.1l16.2,15.5c-0.5,1,0.1,6.3,3,8.9L128.6,196.7z">
    </path>
    <polygon id="basket" class="st7" points="228.4,99.8 226.7,97.9 225.1,95.9 223.5,93.8 221.8,91.8 220.2,89.8 218.5,87.7 216.8,85.7 215.2,83.6 213.4,81.5 211.7,79.3 209.9,77.4 206.9,77.1 203,78.4 200.4,77.7 198.5,75.9 196.6,74 194.7,72.1 192.8,70.2 190.8,68.3 188.8,66.3 186.8,64.3 184.8,62.3 182.7,60.3 180.7,58.2 178.5,56.1 176.4,54 174.2,51.8 171.9,49.9 169.5,47.9 167.1,46.2 164.5,44.6 162,43 159.4,41.6 156.7,40.2 153.9,39.2 151.1,38.3 148.3,37.5 145.4,37 142.6,36.2 139.7,35.7 136.7,35.8 133.8,35.8 130.8,36.1 127.9,36.6 125,37.1 122.1,37.6 119.2,38.4 116.4,39.4 113.6,40.5 110.9,42 108.2,43.6 105.6,45.2 103,46.7 100.5,48.3 97.9,49.8 95.5,51.3 93,52.8 90.6,54.2 88.2,55.7 85.9,57.1 83.5,58.5 81.2,59.9 78.9,61.3 76.6,62.7 74.4,64 72.1,65.4 69.9,66.7 67.6,68.1 65.4,69.4 63.2,70.8 61,72.1 58.9,73.4 56.8,74.8 54.1,75.4 50.6,74.4 48.6,76.1 46.6,77.7 44.6,79.4 42.6,81 40.6,82.6 38.6,84.3 36.6,85.9 34.6,87.5 32.6,89.2 30.7,90.8 28.7,92.4 26.7,94 24.7,95.7 22.7,97.3 22.2,100.4 22.7,100.9 23.1,101.3 23.6,97.8 50.9,75.5 54.1,76.4 57.2,75.8 59.4,74.2 61.5,72.9 111.4,42.8 114.1,41.4 116.8,40.3 119.6,39.4 122.4,38.6 128.1,37.6 131,37.1 133.9,36.8 139.7,36.7 142.4,37.2 145.2,37.9 148.1,38.5 153.6,40.1 156.3,41.1 158.9,42.5 161.5,43.9 164,45.4 166.6,47 168.9,48.7 173.5,52.6 175.7,54.7 199.9,78.6 203,79.5 207,78.1 209.4,78.3 211,80 225.9,98.5 227.3,100.2 228,101 228.4,100.6 227.7,99.9 ">
    </polygon>
  </g>
  <g id="persistent_1_">
    <g id="mound_1_">
      <path id="pitching-mound_1_" class="st6" d="M122.5,174.7c-1.5,1.5-1.5,3.9,0,5.4s3.9,1.5,5.4,0c1.5-1.5,1.5-3.9,0-5.4C126.5,173.2,124,173.2,122.5,174.7z">
      </path>
      <rect id="pitching-rubber_1_" x="123.2" y="176.6" class="st7" width="4" height="1.6">
      </rect>
    </g>
    <g id="lines_1_">
      <line id="left-foul-line_2_" class="st9" x1="125.2" y1="203.2" x2="21.6" y2="99.7">
      </line>
      <line id="right-foul-line_1_" class="st9" x1="125.2" y1="203.2" x2="228.4" y2="99.9">
      </line>
    </g>
    <g id="bases_1_">
      <rect id="third-base_1_" x="98.4" y="174.5" transform="matrix(0.7073 -0.7069 0.7069 0.7073 -95.1992 122.1442)" class="st9" width="3" height="3">
      </rect>
      <rect id="first-base_1_" x="148.9" y="174.5" transform="matrix(0.7073 -0.7069 0.7069 0.7073 -80.4168 157.8396)" class="st9" width="3" height="3">
      </rect>
      <rect id="second-base_1_" x="123.7" y="149.3" transform="matrix(0.707 -0.7073 0.7073 0.707 -69.9813 132.7504)" class="st9" width="3" height="3">
      </rect>
      <polygon id="home_1_" class="st7" points="126.7,201.8 125.2,203.4 123.7,201.8 123.7,200.3 126.7,200.3 ">
      </polygon>
    </g>
  </g>
</svg>
