<svg transform="translate(-900,-1100) scale(4)" id="bam-evp-field-svg" width="500" height="500" version="1.1" xmlns="http://www.w3.org/2000/svg" xmlns:xlink="http://www.w3.org/1999/xlink" x="0px" y="0px" viewBox="0 0 250 250" style="enable-background:new 0 0 250 250; background-color:#141414;" xml:space="preserve">
  <style type="text/css"> .st0{fill:#5B5B5B;}.st1{fill:#7F7F7F;}.st2{fill:#FFEC5F;}.st3{fill:#b2dfdb;}.st4{font-family:'Roboto Condensed';}.st5{font-size:11px;}.st6{fill:#9b7653; stroke: #e2e2e2; stroke-width: 0.5;}.st7{fill:#D3D3D3;stroke:#FFFFFF;stroke-width:0.75;}.st8{fill:none;stroke:#c2c2c2;stroke-width:0.75;}.st9{fill:#D3D3D3}
  </style>
  <g id="field" transform="translate(0 0) scale(1)">
    <path id="Outfield_1_" class="st6" d="M204.2,129.3c0,0-13.1,16.3-28.1,38.7s-28.8,44.3-29.7,45.3c0,0-7.9,10.9-20.1,10.9c-12.2,0-21.1-10.4-21.1-10.4l-50.3-76.1l-26.6-27.6l1.3-2.5l1.1-2.2l1.2-2.2l1.2-2.3l1.2-2.3l1.2-2.3l1.2-2.4l1.2-2.4l1.3-2.4l1.3-2.5l1.3-2.5l1.3-2.6l1.8-2l2.1-1.4l2.1-1.4l2.1-1.4l2.2-1.4l2.2-1.4l2.2-1.4l2.2-1.5L62,68l2.2-1.5l2.2-1.5l2.2-1.5l2.2-1.5l2.3-1.5l2.3-1.5l2.3-1.5L80,56l2.3-1.6l2.4-1.6l2.4-1.6l2.4-1.6L92,48l2.5-1.7l2.5-1.7l2.6-1.7l2.6-1.7l2.7-1.8l2.7-1.8l2.8-1.8l2.8-1.9l2.9-0.5l3,1.1l3,1.1l2.9,1.1l2.9,1.1l2.9,1.1l2.8,1.1l2.8,1l2.8,1l2.7,1l2.7,1l2.7,1l2.7,1l2.6,1l2.6,1l2.6,1l2.6,1l2.6,1l2.6,1l2.6,1l2.6,1l2.6,1l2.5,1l2.5,1l2.5,1l2.5,1l2.5,1l2.6,1l2,2.2l1.7,2.6l1.7,2.5l1.7,2.5l1.6,2.4l1.6,2.4l1.6,2.4l1.6,2.3l1.5,2.3l1.5,2.3l1.5,2.2l1.5,2.2l1.5,2.2l1.4,2.1l1.4,2.1l1.4,2.1l1.4,2.1l1.4,2.1l1.3,2.1l1.3,2l1.3,2l1.9,3L204.2,129.3z">
    </path>
    <path id="grass_1_" class="st3" d="M126.7,218c-10.4,0-17.5-7.7-17.5-7.7l-49.4-75.1l-22-26.4l11.8-22.6l0.4-0.5l65.7-43.9l68.2,25.6l0.3,0.3l28,43.5l-11.8,11.2c-20,29.5-57.5,86.1-57.5,86.1C142.5,209,136.5,218,126.7,218z">
    </path>
    <path id="infield_sand_1_" class="st6" d="M163,165.8c-0.2,0.2-6-28.1-37.1-28.1c-33.4,0-39,25.5-39.5,28.1l-0.4,0.4l14.8,14.8l0.7-0.7l18.2,17.9c-0.7,1-1.1,2.2-1.1,3.6c0,1.2,0.4,2.4,1,3.4c0,0,0,0,0,0.1c1.1,1.8,3.1,3,5.4,3c3.5,0,6.4-2.9,6.4-6.4c0-1.5-0.5-2.8-1.3-3.9l18.7-17.7l1.5,0.5l13.5-13.5L163,165.8z M128.6,196.7c-1-0.7-2.3-1.2-3.7-1.2c-1.5,0-2.8,0.5-3.9,1.3l-17.6-18.2c0,0,6.2-5.6,2.7-10.2l17.4-14.5c0.5-0.3,1.1-0.4,1.8-0.4c0.9,0,1.7,0.5,2.3,1.1c0,0,0.1,0,0.1,0.1l16.2,15.5c-0.5,1,0.1,6.3,3,8.9L128.6,196.7z">
    </path>
  </g>
  <g id="persistent_1_">
    <g id="mound_1_">
      <path id="pitching-mound_1_" class="st6" d="M122.5,174.7c-1.5,1.5-1.5,3.9,0,5.4s3.9,1.5,5.4,0c1.5-1.5,1.5-3.9,0-5.4C126.5,173.2,124,173.2,122.5,174.7z">
      </path>
      <rect id="pitching-rubber_1_" x="123.2" y="176.6" class="st7" width="4" height="1.6">
      </rect>
    </g>
    <g id="lines_1_">
      <line id="left-foul-line_2_" class="st8" x1="125.2" y1="203.2" x2="29.5" y2="107.5">
      </line>
      <line id="right-foul-line_2_" class="st8" x1="125.2" y1="203.2" x2="220.6" y2="107.7">
      </line>
    </g>
    <g id="bases_1_">
      <rect id="third-base_1_" x="98.4" y="174.5" transform="matrix(0.7073 -0.7069 0.7069 0.7073 -95.1992 122.1442)" class="st9" width="3" height="3">
      </rect>
      <rect id="first-base_1_" x="148.9" y="174.5" transform="matrix(0.7073 -0.7069 0.7069 0.7073 -80.4168 157.8396)" class="st9" width="3" height="3">
      </rect>
      <rect id="second-base_1_" x="123.7" y="149.3" transform="matrix(0.707 -0.7073 0.7073 0.707 -69.9813 132.7504)" class="st9" width="3" height="3">
      </rect>
      <polygon id="home_1_" class="st7" points="126.7,201.8 125.2,203.4 123.7,201.8 123.7,200.3 126.7,200.3 ">
      </polygon>
    </g>
  </g>
</svg>
