<svg transform="translate(-900,-1100) scale(4)" id="bam-evp-field-svg" width="500" height="500" version="1.1" xmlns="http://www.w3.org/2000/svg" xmlns:xlink="http://www.w3.org/1999/xlink" x="0px" y="0px" viewBox="0 0 250 250" style="enable-background:new 0 0 250 250; background-color:#141414;" xml:space="preserve">
  <style type="text/css"> .st0{fill:#5B5B5B;}.st1{fill:#7F7F7F;}.st2{fill:#FFEC5F;}.st3{fill:#b2dfdb;}.st4{font-family:'Roboto Condensed';}.st5{font-size:11px;}.st6{fill:#9b7653; stroke: #e2e2e2; stroke-width: 0.5;}.st7{fill:#D3D3D3;stroke:#FFFFFF;stroke-width:0.75;}.st8{fill:none;stroke:#c2c2c2;stroke-width:0.75;}.st9{fill:#D3D3D3}
  </style>
  <g id="field">
    <g id="Outfield">
      <g>
        <polygon class="st6" points="79.9,47.6 82.6,46.6 85.3,45.8 88.1,45.1 90.8,44.3 93.5,43.2 96.2,41.8 98.6,40.1 96.5,41.5 93.9,43 91.2,44.1 88.5,44.9 85.7,45.6 83,46.3 80.3,47.3 77.7,48.5 75.2,49.8 74.8,50 77.2,48.7 ">
        </polygon>
        <polygon class="st6" points="192.5,65.7 194.4,68 196.2,70.4 197.9,72.6 199.7,74.8 201.4,76.9 203.2,79.1 204.9,81.2 206.6,83.3 207.5,84.5 206.2,82.8 204.5,80.7 202.8,78.6 201.1,76.5 199.4,74.3 197.7,72.1 195.9,69.9 194.1,67.6 192.2,65.3 190.4,63 188.8,61 190.6,63.3 ">
        </polygon>
        <polygon class="st6" points="213,91.4 212.7,91 211.1,89 210.4,88.1 211.5,89.5 ">
        </polygon>
        <path class="st6" d="M223.5,104.7l-1.5-1.9l-1.5-1.9l-1.5-1.9l-1.6-1.9l-1.6-2l-1.6-2l-0.9-1.1l1.3,1.7l1.6,2l1.6,2l1.6,2l1.6,1.9l1.6,2l1.5,1.9l-99.1,99.1L23.1,102.7l-2.1,3.2l87.1,105.6c18.4,22.3,34.3-0.3,34.3-0.3l84.4-102.6L223.5,104.7z">
        </path>
        <polygon class="st6" points="101.7,37.3 101.7,37.3 101.4,37.5 98.8,39.9 98.6,40.1 99.1,39.7 ">
        </polygon>
        <polygon class="st6" points="213.1,91.5 213,91.4 213.4,91.8 ">
        </polygon>
        <polygon class="st6" points="188.7,60.9 188.7,60.9 188.8,61 ">
        </polygon>
        <polygon class="st6" points="25,99.7 26.4,97.5 27.8,95.3 29.2,93 30.6,90.7 32.1,88.5 33.8,86.4 35.4,84.3 37.1,82.2 38.8,80.1 40.5,78 42.4,76 44.3,74.1 46.2,72.1 48.2,70.1 50.1,68.1 52.2,66.3 54.3,64.5 56.5,62.8 58.7,61 60.9,59.2 63.2,57.5 65.5,56 67.9,54.5 70.3,52.9 72.7,51.3 74.8,50 74.7,50.1 72.3,51.6 69.8,53.2 67.4,54.7 65,56.2 62.7,57.8 60.4,59.5 58.1,61.3 56,63.1 53.8,64.9 51.6,66.7 49.5,68.4 47.5,70.5 45.6,72.5 43.7,74.5 41.7,76.4 39.9,78.4 38.1,80.5 36.4,82.6 34.7,84.8 33.1,86.9 31.4,89 29.9,91.2 28.5,93.5 27.1,95.8 25.7,98.1 24.3,100.3 23,102.6 23.1,102.7 23.7,101.9 ">
        </polygon>
        <polygon class="st6" points="209.5,86.9 210.4,88.1 209.9,87.4 208.2,85.4 207.5,84.5 207.8,84.9 ">
        </polygon>
        <polygon class="st6" points="224,105.3 222.5,103.4 220.9,101.4 219.4,99.5 217.8,97.5 216.2,95.5 214.7,93.5 213.4,91.8 213,91.4 211.5,89.5 210.4,88.1 209.5,86.9 207.8,84.9 207.5,84.5 206.6,83.3 204.9,81.2 203.2,79.1 201.4,76.9 199.7,74.8 197.9,72.6 196.2,70.4 194.4,68 192.5,65.7 190.6,63.3 188.8,61 188.7,60.9 186.8,58.5 184.7,56.4 182.3,54.9 179.8,53.4 177.3,52.2 174.7,51 172.1,49.9 169.5,48.9 166.7,48.1 164.1,47.3 161.3,46.5 158.6,45.7 155.9,44.8 153.2,43.9 150.4,43 147.7,42.2 144.9,41.5 142.1,40.9 139.2,40.3 136.4,39.6 133.5,38.9 130.7,38.1 127.8,37.5 124.9,36.9 121.9,36.4 119,36.1 116,35.8 113,35.6 110.1,35.6 107.1,35.7 104.2,35.9 101.7,37.3 101.7,37.3 99.1,39.7 98.6,40.1 96.2,41.8 93.5,43.2 90.8,44.3 88.1,45.1 85.3,45.8 82.6,46.6 79.9,47.6 77.2,48.7 74.8,50 72.7,51.3 70.3,52.9 67.9,54.5 65.5,56 63.2,57.5 60.9,59.2 58.7,61 56.5,62.8 54.3,64.5 52.2,66.3 50.1,68.1 48.2,70.1 46.2,72.1 44.3,74.1 42.4,76 40.5,78 38.8,80.1 37.1,82.2 35.4,84.3 33.8,86.4 32.1,88.5 30.6,90.7 29.2,93 27.8,95.3 26.4,97.5 25,99.7 23.7,101.9 23.1,102.7 124.9,204.4 ">
        </polygon>
      </g>
    </g>
    <path id="grass_1_" class="st3" d="M125,214.2c-3.3,0-6.9-0.3-10.7-4.8l-83.5-102l6.5-10.3l1.3-1.9l6.4-8.2l1.5-1.8l9.1-9.4l1.8-1.5l8.4-6.9l1.9-1.4l2.2-1.4l2.5-1.6l2.4-1.6l2.3-1.5l2.2-1.3l2-1.1l2.1-0.9l2.1-0.8l2.3-0.6l2.8-0.7l3.3-1l3.5-1.5l3.4-1.9l3.3-2.3l3.3-3l0.9-1c0,0,6.3-1.4,11.2-0.2s47,11.6,47,11.6l6.1,2.6l2,1.4l4.4,4.6l1.5,1.6l9.1,11.5l26.1,32.8l0.8,1l-80.7,98.9C134.5,211.4,129.9,214.2,125,214.2z">
    </path>
    <path id="infield_sand" class="st6" d="M163,165.8c-0.2,0.2-6-28.1-37.1-28.1c-33.4,0-39,25.5-39.5,28.1l-0.4,0.4l2.6,2.6l12.2,12.2l0.7-0.7l18.2,17.9c-0.7,1-1.1,2.2-1.1,3.6c0,1.2,0.4,2.4,1,3.4c0,0,0,0,0,0.1c1.1,1.8,3.1,3,5.4,3c3.5,0,6.4-2.9,6.4-6.4c0-1.5-0.5-2.8-1.3-3.9l18.7-17.7l1.5,0.5l13.5-13.5L163,165.8z M128.6,196.7c-1-0.7-2.3-1.2-3.7-1.2c-1.5,0-2.8,0.5-3.9,1.3l-17.6-18.2c0,0,6.2-5.6,2.7-10.2l17.4-14.5c0.5-0.3,1.1-0.4,1.8-0.4c0.9,0,1.7,0.5,2.3,1.1c0,0,0.1,0,0.1,0.1l16.2,15.5c-0.5,1,0.1,6.3,3,8.9L128.6,196.7z">
    </path>
  </g>
  <g id="persistent">
    <g id="mound">
      <path id="pitching-mound" class="st6" d="M122.5,174.7c-1.5,1.5-1.5,3.9,0,5.4s3.9,1.5,5.4,0c1.5-1.5,1.5-3.9,0-5.4C126.5,173.2,124,173.2,122.5,174.7z">
      </path>
      <rect id="pitching-rubber" x="123.2" y="176.6" class="st7" width="4" height="1.6">
      </rect>
    </g>
    <g id="lines">
      <polyline id="left-foul-line" class="st8" points="125.2,203.2 28.5,106.6 23.7,101.9 ">
      </polyline>
      <polyline id="right-foul-line" class="st8" points="125.2,203.2 221.8,106.5 223.5,104.7 ">
      </polyline>
    </g>
    <g id="bases">
      <rect id="third-base" x="98.4" y="174.5" transform="matrix(0.7073 -0.7069 0.7069 0.7073 -95.1992 122.1442)" class="st9" width="3" height="3">
      </rect>
      <rect id="first-base" x="148.9" y="174.5" transform="matrix(0.7073 -0.7069 0.7069 0.7073 -80.4168 157.8396)" class="st9" width="3" height="3">
      </rect>
      <rect id="second-base" x="123.7" y="149.3" transform="matrix(0.707 -0.7073 0.7073 0.707 -69.9813 132.7504)" class="st9" width="3" height="3">
      </rect>
      <polygon id="home" class="st7" points="126.7,201.8 125.2,203.4 123.7,201.8 123.7,200.3 126.7,200.3 ">
      </polygon>
    </g>
  </g>
</svg>
