<svg transform="translate(-900,-1100) scale(4)" id="bam-evp-field-svg" width="500" height="500" version="1.1" xmlns="http://www.w3.org/2000/svg" xmlns:xlink="http://www.w3.org/1999/xlink" x="0px" y="0px" viewBox="0 0 250 250" style="enable-background:new 0 0 250 250; background-color:#141414;" xml:space="preserve">
  <style type="text/css"> .st0{fill:#5B5B5B;}.st1{fill:#7F7F7F;}.st2{fill:#FFEC5F;}.st3{fill:#b2dfdb;}.st4{font-family:'Roboto Condensed';}.st5{font-size:11px;}.st6{fill:#9b7653; stroke: #e2e2e2; stroke-width: 0.5;}.st7{fill:#D3D3D3;stroke:#FFFFFF;stroke-width:0.75;}.st8{fill:none;stroke:#c2c2c2;stroke-width:0.75;}.st9{fill:#D3D3D3}
  </style>
  <g id="field" transform="translate(0 0) scale(1)">
    <path id="Outfield_1_" class="st6" d="M125.8,222.5c-13.4,0-22-10.9-22-10.9L79.4,182L69,168.9l-16.7-34.3l-18.5-17.2l-2.4-7.7l0.1-3.3l0.4-3l0.5-3.1l0.6-3l0.9-2.7l1-2.8l1.1-2.6l1.3-2.5l1.3-2.5l1.7-2l1.9-1.9l1.9-1.9l1.9-1.9l1.9-1.9l1.9-1.9l1.9-1.9l2-2l2-2l2-2l2-2l2-2l2.1-2.1l2.1-2.1l2.1-2.1l2.2-2.2l2.2-2.2l2.3-2.1l2.5-1.5l2.5-1.5l2.6-1.5l2.6-1.6l2.6-1.6l2.6-1.6l2.8-0.9l2.8-0.9l2.9-0.8l2.9-0.7l2.9-0.7l2.9-0.6l2.9-0.5l2.9-0.4l3,0l3,0l3,0l3,0l3,0.5l2.9,0.5l2.9,0.5l2.9,0.5l2.9,0.9l2.8,0.9l2.8,0.9l2.8,1.1l2.6,1.9l2.6,1.9l2.5,1.8l2.5,1.8l2.5,1.8l2.4,1.7l2.3,2.2l2.2,2.2l2.2,2.2l2.1,2.1l2.1,2.1l2.1,2.1l2,2l2,2l2,2l1.9,1.9l1.9,1.9l1.9,1.9l1.9,1.9l1.8,1.8l1.8,1.8l1.8,1.8l1.8,1.8l1.8,1.8l1.8,1.8l1.7,1.7l1.7,1.7l1.7,1.7l1.7,1.7l1.7,1.7l1.7,1.7l1.7,1.7l1.4,2.1l1.3,2l0.9,2.4l0.9,2.4l0.4,2.8l-0.7,4.3l-21.8,21.8l-24.5,43.3l-24.9,32.4C145.6,212.7,138.2,222.5,125.8,222.5z">
    </path>
    <path id="grass_1_" class="st3" d="M125.8,216.5c-9.2,0-15.7-7.8-15.8-7.9l-32.4-37.1L59,129.8l-18.1-16.9l-1.4-4.4l0-1.5l0.3-2.5l0.4-2.8l0.5-2.3l1.6-4.7l0.9-2.1l3-3.9l0.9-1.1c0,0,26.1-27.6,30.8-31.7c12.6-11.3,34.8-12.8,34.8-12.8l8.3,0l2.3,0l8.2,1.3l2.3,0.4l7.8,2.6l1.6,0.6L157,58l47,45.1l1.1,1.1c0,0,2.7,3.1,0,6.5s-11.9,14.7-11.9,14.7l-23.1,43.3l-32.5,42C135.9,212.7,131.6,216.5,125.8,216.5z">
    </path>
    <path id="infield_sand" class="st6" d="M163,165.8c-0.2,0.2-6-28.1-37.1-28.1c-33.4,0-39,25.5-39.5,28.1l-0.4,0.4l14.8,14.8l0.7-0.7l18.2,17.9c-0.7,1-1.1,2.2-1.1,3.6c0,1.2,0.4,2.4,1,3.4c0,0,0,0,0,0.1c1.1,1.8,3.1,3,5.4,3c3.5,0,6.4-2.9,6.4-6.4c0-1.5-0.5-2.8-1.3-3.9l18.7-17.7l1.5,0.5l13.5-13.5L163,165.8z M128.6,196.7c-1-0.7-2.3-1.2-3.7-1.2c-1.5,0-2.8,0.5-3.9,1.3l-17.6-18.2c0,0,6.2-5.6,2.7-10.2l17.4-14.5c0.5-0.3,1.1-0.4,1.8-0.4c0.9,0,1.7,0.5,2.3,1.1c0,0,0.1,0,0.1,0.1l16.2,15.5c-0.5,1,0.1,6.3,3,8.9L128.6,196.7z">
    </path>
  </g>
  <g id="persistent">
    <g id="mound">
      <path id="pitching-mound" class="st6" d="M122.5,174.7c-1.5,1.5-1.5,3.9,0,5.4s3.9,1.5,5.4,0c1.5-1.5,1.5-3.9,0-5.4C126.5,173.2,124,173.2,122.5,174.7z">
      </path>
      <rect id="pitching-rubber" x="123.2" y="176.6" class="st7" width="4" height="1.6">
      </rect>
    </g>
    <g id="lines">
      <line id="left-foul-line" class="st8" x1="125.2" y1="203.2" x2="28.1" y2="106.1">
      </line>
      <line id="right-foul-line" class="st8" x1="125.2" y1="203.2" x2="222.3" y2="106">
      </line>
    </g>
    <g id="bases">
      <rect id="third-base" x="98.4" y="174.5" transform="matrix(0.7073 -0.7069 0.7069 0.7073 -95.1992 122.1442)" class="st9" width="3" height="3">
      </rect>
      <rect id="first-base" x="148.9" y="174.5" transform="matrix(0.7073 -0.7069 0.7069 0.7073 -80.4168 157.8396)" class="st9" width="3" height="3">
      </rect>
      <rect id="second-base" x="123.7" y="149.3" transform="matrix(0.707 -0.7073 0.7073 0.707 -69.9813 132.7504)" class="st9" width="3" height="3">
      </rect>
      <polygon id="home" class="st7" points="126.7,201.8 125.2,203.4 123.7,201.8 123.7,200.3 126.7,200.3 ">
      </polygon>
    </g>
  </g>
</svg>
