<svg transform="translate(-900,-1100) scale(4)" id="bam-evp-field-svg" width="500" height="500" version="1.1" xmlns="http://www.w3.org/2000/svg" xmlns:xlink="http://www.w3.org/1999/xlink" x="0px" y="0px" viewBox="0 0 250 250" style="enable-background:new 0 0 250 250; background-color:#141414;" xml:space="preserve">
  <style type="text/css"> .st0{fill:#5B5B5B;}.st1{fill:#7F7F7F;}.st2{fill:#FFEC5F;}.st3{fill:#b2dfdb;}.st4{font-family:'Roboto Condensed';}.st5{font-size:11px;}.st6{fill:#9b7653; stroke: #e2e2e2; stroke-width: 0.5;}.st7{fill:#D3D3D3;stroke:#FFFFFF;stroke-width:0.75;}.st8{fill:none;stroke:#c2c2c2;stroke-width:0.75;}.st9{fill:#D3D3D3}
  </style>
  <g id="field" transform="translate(250 420) scale(0.98 -0.98)">
    <path id="Outfield_1_" class="st6" d="M-228,314.7l0,7l2.2,1.3l1.5,2l1.4,2.2l1.4,2.2l1.4,2.2l1.6,2l1.8,1.8l1.8,1.8l1.8,1.8l1.8,1.8l1.8,1.8l1.9,1.8l1.9,1.9l1.9,1.9l1.9,1.9l1.9,1.9l1.9,1.9l2,1.9l2,2l2,2l2,2l2.1,2l2.1,2.1l2.1,2.1l2.1,2.1l2.2,2.2l2.2,2.2l2.3,2.3l2.4,2.1l2.6,1.5l2.6,1.5l2.6,1.5l2.6,1.5l2.7,1.5l3,0.1l3,0l3,0l2.9,0l2.9,0l2.9,0l2.9,0l2.8,1.6l2.9,1l2.9,0l2.9,0l2.9,0l2.9,0l2.9,0l2.9,0l3,0l3,0l3,0l2.9-0.4l2.9-0.6l2.9-0.6l2.9-0.6l2.9-0.6l2.9-0.6l2.7-1.5l2.6-1.6l2.6-1.6l2.6-1.6l2.5-1.8l2.3-2.3l2.2-2.2l2.2-2.2l2.2-2.2l2.1-2.1l2.1-2.1l2.1-2.1l2-2l2-2l2-2l2-2l2-2l1.9-1.9l1.9-1.9l1.9-1.9l1.9-1.9l1.9-1.9l1.9-1.9l1.9-1.9l1.8-1.8l0.6-3.3l0-4l0-3.8l0-3.7l1.5-1.9l1.7-1.7l1.5-1.9l0.6-10.6l-31.5-31.5l-20.4-35l-2.4-2.4l-4.8-7.3l-16.3-17.6l-2.7-0.5l-7.2-6.8l-8.2-4h-7.3l-8.8,3.7l-9.6,9.6l-3-0.3l-13.5,14l-4.2,8.1l-3.6,3.2l-23.4,36.5v7.2L-228,314.7z">
    </path>
    <path id="grass_1_" class="st3" d="M-129.5,210.3l-5.9,2.5l-11.3,11.2l-17.1,18.4l-3.8,3.5l-21.6,33.6v8.2l-25.9,26.8l-0.7,8.1l3.2,5.6l43,42.9l1.6,1.4l10.6,6.1l0.8,0l19.6,0.1l4,0.2l3,2.3l22.7,0.1l2.2-0.3l13-2.5l1.4-0.8l7.3-4.5l1.7-1.2l37-40c0,0,1.7-1.7,2.1-5.2c0.4-3.5,0-20.4,0-20.4l-25.6-25.6l-20.4-35l-2.2-2.2l-21.3-22.9l-8.1-7.7l-5.3-2.6H-129.5z">
    </path>
    <path id="infield_sand" class="st6" d="M-88.8,259.4c-0.2-0.2-6.1,28.7-37.9,28.7c-34.1,0-39.8-26-40.3-28.7l-0.4-0.4l15.1-15.1l0.7,0.7l18.6-18.3c-0.7-1-1.1-2.2-1.1-3.7c0-1.2,0.4-2.4,1-3.5c0,0,0,0,0-0.1c1.1-1.8,3.2-3.1,5.5-3.1c3.6,0,6.5,3,6.5,6.5c0,1.5-0.5,2.9-1.3,4l19.1,18.1l1.5-0.5l13.8,13.8L-88.8,259.4z M-123.9,227.8c-1,0.7-2.3,1.2-3.8,1.2c-1.5,0-2.9-0.5-4-1.3l-18,18.6c0,0,6.3,5.7,2.8,10.4l17.8,14.8c0.5,0.3,1.1,0.4,1.8,0.4c0.9,0,1.7-0.5,2.3-1.1c0,0,0.1,0,0.1-0.1l16.5-15.8c-0.5-1,0.1-6.4,3.1-9.1L-123.9,227.8z">
    </path>
  </g>
  <g id="persistent_1_">
    <g id="mound_1_">
      <path id="pitching-mound_1_" class="st6" d="M122.5,174.7c-1.5,1.5-1.5,3.9,0,5.4s3.9,1.5,5.4,0c1.5-1.5,1.5-3.9,0-5.4C126.5,173.2,124,173.2,122.5,174.7z">
      </path>
      <rect id="pitching-rubber_1_" x="123.2" y="176.6" class="st7" width="4" height="1.6">
      </rect>
    </g>
    <g id="lines_1_">
      <line id="left-foul-line_1_" class="st8" x1="125.2" y1="203.2" x2="26.6" y2="104.6">
      </line>
      <line id="right-foul-line_2_" class="st8" x1="125.2" y1="203.2" x2="219.7" y2="108.6">
      </line>
    </g>
    <g id="bases_1_">
      <rect id="third-base_1_" x="98.4" y="174.5" transform="matrix(0.7073 -0.7069 0.7069 0.7073 -95.1992 122.1442)" class="st9" width="3" height="3">
      </rect>
      <rect id="first-base_1_" x="148.9" y="174.5" transform="matrix(0.7073 -0.7069 0.7069 0.7073 -80.4168 157.8396)" class="st9" width="3" height="3">
      </rect>
      <rect id="second-base_1_" x="123.7" y="149.3" transform="matrix(0.707 -0.7073 0.7073 0.707 -69.9813 132.7504)" class="st9" width="3" height="3">
      </rect>
      <polygon id="home_1_" class="st7" points="126.7,201.8 125.2,203.4 123.7,201.8 123.7,200.3 126.7,200.3 ">
      </polygon>
    </g>
  </g>
</svg>
