<svg transform="translate(-900,-1100) scale(4)" id="bam-evp-field-svg" width="500" height="500" version="1.1" xmlns="http://www.w3.org/2000/svg" xmlns:xlink="http://www.w3.org/1999/xlink" x="0px" y="0px" viewBox="0 0 250 250" style="enable-background:new 0 0 250 250; background-color:#141414;" xml:space="preserve">
  <style type="text/css"> .st0{fill:#5B5B5B;}.st1{fill:#7F7F7F;}.st2{fill:#FFEC5F;}.st3{fill:#b2dfdb;}.st4{font-family:'Roboto Condensed';}.st5{font-size:11px;}.st6{fill:#9b7653; stroke: #e2e2e2; stroke-width: 0.5;}.st7{fill:#D3D3D3;stroke:#FFFFFF;stroke-width:0.75;}.st8{fill:none;stroke:#c2c2c2;stroke-width:0.75;}.st9{fill:#D3D3D3}
  </style>
  <g id="field" transform="translate(0 0) scale(1)">
    <path id="Outfield_1_" class="st6" d="M65.6,172l-18.4-36.9l0.3-3.9l-19.9-20.9l-0.7-2.9l0.6-1.6l-0.1-3.5l1.7-1.8l1.7-1.8l1.7-1.8l1.7-1.8l1.7-1.8l1.7-1.8l1.7-1.9l1.7-1.9l1.7-1.9l1.7-1.9l1.8-1.9l1.8-1.9l1.8-1.9l1.8-2l1.8-2l1.8-2l1.9-2l1.9-2.1l1.9-2.1l2-2.1l2-2.2l2-2.2l2.3-1.7l2.3-1.5l2.4-1.5l2.4-1.5l2.4-1.6l2.4-1.6l2.5-1.6l2.6-1.3l2.6-1l2.7-1l2.7-1l2.7-1.1l2.7-1.1l2.7-1.1l2.8-1.1l2.8-1.1l2.8-1.1l2.8-1.1l2.9-1.1l2.9-0.9l3,0.9l2.9,0.9l2.9,0.9l2.9,0.9l2.8,0.9l2.8,0.9l2.8,0.9l2.8,0.9l2.7,0.9l2.7,0.9l2.7,0.9l2.7,0.9l2.7,0.9l2.7,0.8l2.7,0.8l2.7,0.8l2.7,0.8l2.7,0.8l2.6,0.8l2.6,0.8l2.6,0.8l2.3,1.9l2,2.5l2,2.4l1.9,2.4l1.9,2.3l1.9,2.3l1.8,2.3l1.8,2.2l1.8,2.2l1.7,2.2l1.7,2.1l1.7,2.1l1.7,2.1l1.7,2l1.6,2l1.6,2l1.6,2l1.6,2l1.6,1.9l1.6,1.9l1.5,1.9l1.5,1.9l1.5,1.9l1.5,1.9l1.5,1.9l1.5,1.9l0.9,0.9L200,129.2v3.2l-19.8,39.4l-12,14.6c0,0-21.8,28-26.1,32.5c-4.7,5-18.6,15.3-34.9-0.7L65.6,172z">
    </path>
    <path id="grass_1_" class="st3" d="M126.2,219.4c-3.7,0-9.9-2.5-13.1-5.6l-31.8-35.5L71.5,168l-19.1-35.9l0.4-5.5l-17.9-16.9l0-0.7l0.7-1.9l0-1.8l36.7-40l1.4-1.1l13.8-8.9l1.9-0.9l29.6-11.6l0.2-0.1l53.8,17.1l0.5,0.4l37.9,47L192,125.8v4.9l-17.6,39l-6,6.8l-29.6,36.8C137.3,214.6,132.3,219.4,126.2,219.4z">
    </path>
    <path id="infield_sand_1_" class="st6" d="M163,165.8c-0.2,0.2-6-28.1-37.1-28.1c-33.4,0-39,25.5-39.5,28.1l-0.4,0.4l14.8,14.8l0.7-0.7l18.2,17.9c-0.7,1-1.1,2.2-1.1,3.6c0,1.2,0.4,2.4,1,3.4c0,0,0,0,0,0.1c1.1,1.8,3.1,3,5.4,3c3.5,0,6.4-2.9,6.4-6.4c0-1.5-0.5-2.8-1.3-3.9l18.7-17.7l1.5,0.5l13.5-13.5L163,165.8z M128.6,196.7c-1-0.7-2.3-1.2-3.7-1.2c-1.5,0-2.8,0.5-3.9,1.3l-17.6-18.2c0,0,6.2-5.6,2.7-10.2l17.4-14.5c0.5-0.3,1.1-0.4,1.8-0.4c0.9,0,1.7,0.5,2.3,1.1c0,0,0.1,0,0.1,0.1l16.2,15.5c-0.5,1,0.1,6.3,3,8.9L128.6,196.7z">
    </path>
  </g>
  <g id="persistent_1_">
    <g id="mound_1_">
      <path id="pitching-mound_1_" class="st6" d="M122.5,174.7c-1.5,1.5-1.5,3.9,0,5.4s3.9,1.5,5.4,0c1.5-1.5,1.5-3.9,0-5.4C126.5,173.2,124,173.2,122.5,174.7z">
      </path>
      <rect id="pitching-rubber_1_" x="123.2" y="176.6" class="st7" width="4" height="1.6">
      </rect>
    </g>
    <g id="lines_1_">
      <line id="left-foul-line_1_" class="st8" x1="125.2" y1="203.2" x2="27.6" y2="105.7">
      </line>
      <line id="right-foul-line_1_" class="st8" x1="125.2" y1="203.2" x2="221.4" y2="106.9">
      </line>
    </g>
    <g id="bases_1_">
      <rect id="third-base_1_" x="98.4" y="174.5" transform="matrix(0.7073 -0.7069 0.7069 0.7073 -95.1992 122.1442)" class="st9" width="3" height="3">
      </rect>
      <rect id="first-base_1_" x="148.9" y="174.5" transform="matrix(0.7073 -0.7069 0.7069 0.7073 -80.4168 157.8396)" class="st9" width="3" height="3">
      </rect>
      <rect id="second-base_1_" x="123.7" y="149.3" transform="matrix(0.707 -0.7073 0.7073 0.707 -69.9813 132.7504)" class="st9" width="3" height="3">
      </rect>
      <polygon id="home_1_" class="st7" points="126.7,201.8 125.2,203.4 123.7,201.8 123.7,200.3 126.7,200.3 ">
      </polygon>
    </g>
  </g>
</svg>
