<svg transform="translate(-900,-1100) scale(4)" id="bam-evp-field-svg" width="500" height="500" version="1.1" xmlns="http://www.w3.org/2000/svg" x="0" y="0" viewBox="0 0 250 250" style="enable-background:new 0 0 250 250; background-color:#141414;" xml:space="preserve">
  <style type="text/css"> .st0{fill:#5B5B5B;}.st1{fill:#7F7F7F;}.st2{fill:#FFEC5F;}.st3{fill:#b2dfdb;}.st4{font-family:'Roboto Condensed';}.st5{font-size:11px;}.st6{fill:#9b7653; stroke: #e2e2e2; stroke-width: 0.5;}.st7{fill:#D3D3D3;stroke:#FFFFFF;stroke-width:0.75;}.st8{fill:none;stroke:#c2c2c2;stroke-width:0.75;}.st9{fill:#D3D3D3}
  </style>
  <g id="field_1_">
    <path id="outfield" class="st6" d="M221.4 106.7l-.8-2.6-.9-2.6-.9-2.7-.9-2.7-.9-2.8-.9-2.8-1-2.9-1-2.9-1-3-1-3.1-1.7-2.2-2.3-1.3-2.4-1.3-2.3-1.3-2.3-1.3-2.3-1.3-2.3-1.3-2.4-1.2-2.3-1.3-2.3-1.3-2.4-1.3-2.3-1.3-2.4-1.3-2.4-1.3-2.4-1.3-2.4-1.3-2.4-1.3-2.4-1.3-.9-6.7-2.6-1.4-2.5-1.5-2.6-1.4-2.6-1.5-2.7-1.5-2.7-1.5-2.7-1.5-2.8-1.5-2.8-1.6-2.9-.1h-35.3l-2.9.2-2.6 2.7-2.6 2.6-2.4 2.6-2.4 2.5-2.4 2.4-2.3 2.4-2.3 2.3-2.2 2.2-2.2 2-3-.1-3-.4-3-.4-3-.4-2.4 1.6-2.1 2.2-2.1 2.2-2 2.1-2 2.1-2 2-1.9 2-1.9 2-1.9 2-1.9 1.9-1.8 1.9-1.8 1.9-1.8 1.9-1.8 1.9-1.8 1.9-1.8 1.9-1.8 1.7-1.7 1.9-1 2.7-1.1 2.6-1 2.6-1 2.5-1 2.4-1 2.4-1 2.4v2.7l27.1 27.4c1.7 4.6 1 11.2 5.4 18.8C69 168.5 91.7 198 91.7 198s13.3 15.9 14.3 17c.9 1.1 10.9 7.6 18.9 7.6 6.3 0 16-5.5 16-5.5s30.7-32 37.8-44.1c5-8.6 8.1-22.8 11.8-31.9l30.9-31v-3.4z">
    </path>
    <path id="grass_1_" class="st3" d="M124.3 216.4c-4.6 0-13.9-5.2-13.9-5.3-1.9-2.1-4-4.1-13-14.9-2.9-3.7-23.4-29.7-29.7-40.5-4.1-7-1-13.4-2.7-18l-.6-1.6-26.7-26.7 2.1-6.1 1-2.6 1-2.5 1.1-2.7.5-1.4.7-.8 3.4-3.6 3.6-3.7 5.6-5.8 1.8-1.8 5.8-6.1 1.9-2 7-7.3 2.9.4 9.5 1.2 5.1-4.7 4.6-4.7 4.7-4.9 2.5-2.5 2.4-2.5 2.5-2.6.5-.5H143.5l1.2.7 2.7 1.5 2.7 1.5 5.3 3 2.6 1.5 2.6 1.4 1.6.9.9 6.8 6 3.3 2.4 1.4 2.3 1.2 2.4 1.3 4.7 2.5 2.4 1.4 2.4 1.3 4.7 2.6 2.3 1.2 9.2 5.1 2.4 1.3 2.7 1.5 7.9 24.4-30.2 29.6-.6 1.5c-6.3 15.3-6.9 25.2-10.4 31.2-6 10.2-36.5 43-36.5 43s-7.4 3.1-12.9 3.1z">
    </path>
    <path id="infield_sand_1_" class="st6" d="M163 165.8c-.2.2-6-28.1-37.1-28.1-33.4 0-39 25.5-39.5 28.1l-.4.4 14.8 14.8.7-.7 18.2 17.9c-.7 1-1.1 2.2-1.1 3.6 0 1.2.4 2.4 1 3.4v.1c1.1 1.8 3.1 3 5.4 3 3.5 0 6.4-2.9 6.4-6.4 0-1.5-.5-2.8-1.3-3.9l18.7-17.7 1.5.5 13.5-13.5-.8-1.5zm-34.4 30.9c-1-.7-2.3-1.2-3.7-1.2-1.5 0-2.8.5-3.9 1.3l-17.6-18.2s6.2-5.6 2.7-10.2l17.4-14.5c.5-.3 1.1-.4 1.8-.4.9 0 1.7.5 2.3 1.1 0 0 .1 0 .1.1l16.2 15.5c-.5 1 .1 6.3 3 8.9l-18.3 17.6z">
    </path>
  </g>
  <g id="persistent_1_">
    <g id="mound_1_">
      <path id="pitching-mound_1_" class="st6" d="M122.5 174.7c-1.5 1.5-1.5 3.9 0 5.4s3.9 1.5 5.4 0c1.5-1.5 1.5-3.9 0-5.4-1.4-1.5-3.9-1.5-5.4 0z">
      </path>
      <path id="pitching-rubber_1_" class="st7" d="M123.2 176.6h4v1.6h-4z">
      </path>
    </g>
    <g id="lines_1_">
      <path id="left-foul-line_2_" class="st8" d="M125.2 203.2l-95.7-95.7">
      </path>
      <path id="right-foul-line_2_" class="st8" d="M125.2 203.2l96.3-96.4">
      </path>
    </g>
    <g id="bases_1_">
      <rect id="third-base" x="98.4" y="174.5" transform="matrix(0.7073 -0.7069 0.7069 0.7073 -95.1992 122.1442)" class="st9" width="3" height="3">
      </rect>
      <rect id="first-base" x="148.9" y="174.5" transform="matrix(0.7073 -0.7069 0.7069 0.7073 -80.4168 157.8396)" class="st9" width="3" height="3">
      </rect>
      <rect id="second-base" x="123.7" y="149.3" transform="matrix(0.707 -0.7073 0.7073 0.707 -69.9813 132.7504)" class="st9" width="3" height="3">
      </rect>
      <polygon id="home" class="st7" points="126.7,201.8 125.2,203.4 123.7,201.8 123.7,200.3 126.7,200.3 ">
      </polygon>
    </g>
  </g>
</svg>
