<svg transform="translate(-900,-1100) scale(4)" id="bam-evp-field-svg" width="500" height="500" version="1.1" xmlns="http://www.w3.org/2000/svg" xmlns:xlink="http://www.w3.org/1999/xlink" x="0px" y="0px" viewBox="0 0 250 250" style="enable-background:new 0 0 250 250; background-color:#141414;" xml:space="preserve">
  <style type="text/css">.st0{fill:#5B5B5B;}.st1{fill:#7F7F7F;}.st2{fill:#FFEC5F;}.st3{fill:#b2dfdb;}.st4{font-family:'Roboto Condensed';}.st5{font-size:11px;}.st6{fill:#9b7653; stroke: #e2e2e2; stroke-width: 0.5;}.st7{fill:#D3D3D3;stroke:#FFFFFF;stroke-width:0.75;}.st8{fill:none;stroke:#c2c2c2;stroke-width:0.75;}.st9{fill:#D3D3D3}
  </style>
  <g id="field" transform="translate(0 0) scale(1)">
    <path id="Outfield_1_" class="st6" d="M223.2,105l-0.5,1.8l-1.4,2.2v7.4h-0.8L202.7,135l-22.8,39.3c0,0-41.1,45.9-45.7,48.1c-1.6,1-3,2.9-8.8,2.9c-5.1,0-8-1.9-9.9-2.9c-4.2-2.1-43.2-47-43.2-47l-23.8-40.3L30,115.7h-2l-0.1-9.6l0-3.4l0-3.6l0-3.8l-0.1-3.9l-0.1-4.1l2.9-0.7l3.3,0l2-1.6l1.9-1.7l1.9-1.7l1.9-1.8l2-1.8l2-1.8l2-1.8l2-1.8l2-1.8l2-1.8l2-1.8l2.1-1.9l2.1-1.9l2.1-1.9l2.1-1.9l2.2-1.9l2.2-2l2.2-2l2.2-2l2.3-2l2.3-2.1l2.3-2.1l2.4-2.2l2.4-2.2l2.5-2.2l2.5-2.3l2.7-1.7l2.9-0.6l3-0.5l3,0l3,0l3,0l3,0l3,0l3,0l3,0l3,0.8l2.9,0l2.9,0l3-0.8l3,0l3,0l3,0l3,0l3,0l3,0l3,0l2.8,1.1l3,0l2.7,1.9l2.5,2.3l2.5,2.2l2.4,2.2l2.4,2.1l2.3,2.1l2.3,2.1l2.3,2l2.2,2l2.2,2l2.2,2l2.2,1.9l2.2,1.7l2.1,1.9l2.1,1.9l2.1,1.9l2,1.8l2,1.8l2,1.8l2,1.8l2,1.8l2,1.8l2,1.8l1.9,1.8l1.9,1.7l1.9,1.7l1.9,1.7l1.9,1.7l3.1,0.3l2.1,1.5l0,3.9l0,3.8l0,3.6L223.2,105z">
    </path>
    <path id="grass_1_" class="st3" d="M125.7,220.2c-3.1,0-6.3-1.6-7.4-2.2c-3.8-2.9-23.2-24.2-40.5-42.8l-22.9-41.9l-18.9-18.9v-8.3l0-3.5l0.8-8l4.3-3.6L94.5,43l4.3-1.1l19.3,0l13.9,0l18.4,0l4.8,1.1l0.2,0.1l59.2,53.1v16.5l-17.2,18.4l-22.9,39.4c-16.6,18.5-38.8,44.7-42.8,47.7C131.7,218.3,129.3,220.2,125.7,220.2z">
    </path>
    <path id="infield_sand" class="st6" d="M163,165.8c-0.2,0.2-6-28.1-37.1-28.1c-33.4,0-39,25.5-39.5,28.1l-0.4,0.4l14.8,14.8l0.7-0.7l18.2,17.9c-0.7,1-1.1,2.2-1.1,3.6c0,0.4,0.1,0.9,0.2,1.3l0,0l-12.9,2.6l7.2,8l7-7.7c1.2,1.4,2.9,2.4,5,2.4c1.8,0,3.5-0.8,4.6-2l6.7,7.4l7.2-8l-12.3-2.5l0,0c0.1-0.4,0.1-0.9,0.1-1.3c0-1.5-0.5-2.8-1.3-3.9l18.7-17.7l1.5,0.5l13.5-13.5L163,165.8z M128.6,196.7c-1-0.7-2.3-1.2-3.7-1.2c-1.5,0-2.8,0.5-3.9,1.3l-17.6-18.2c0,0,6.2-5.6,2.7-10.2l17.4-14.5c0.5-0.3,1.1-0.4,1.8-0.4c0.9,0,1.7,0.5,2.3,1.1c0,0,0.1,0,0.1,0.1l16.2,15.5c-0.5,1,0.1,6.3,3,8.9L128.6,196.7z">
    </path>
  </g>
  <g id="persistent_1_">
    <g id="mound_1_">
      <path id="pitching-mound_1_" class="st6" d="M122.5,174.7c-1.5,1.5-1.5,3.9,0,5.4s3.9,1.5,5.4,0c1.5-1.5,1.5-3.9,0-5.4C126.5,173.2,124,173.2,122.5,174.7z">
      </path>
      <rect id="pitching-rubber_1_" x="123.2" y="176.6" class="st7" width="4" height="1.6">
      </rect>
    </g>
    <g id="lines_1_">
      <line id="left-foul-line_1_" class="st8" x1="125.2" y1="203.2" x2="28" y2="106.1">
      </line>
      <line id="right-foul-line_1_" class="st8" x1="125.2" y1="203.2" x2="223.3" y2="105.1">
      </line>
    </g>
    <g id="bases_1_">
      <rect id="third-base_1_" x="98.4" y="174.5" transform="matrix(0.7073 -0.7069 0.7069 0.7073 -95.1992 122.1442)" class="st9" width="3" height="3">
      </rect>
      <rect id="first-base_1_" x="148.9" y="174.5" transform="matrix(0.7073 -0.7069 0.7069 0.7073 -80.4168 157.8396)" class="st9" width="3" height="3">
      </rect>
      <rect id="second-base_1_" x="123.7" y="149.3" transform="matrix(0.707 -0.7073 0.7073 0.707 -69.9813 132.7504)" class="st9" width="3" height="3">
      </rect>
      <polygon id="home_1_" class="st7" points="126.7,201.8 125.2,203.4 123.7,201.8 123.7,200.3 126.7,200.3 ">
      </polygon>
    </g>
  </g>
</g>
</svg>
