<svg transform="translate(-900,-1100) scale(4)" id="bam-evp-field-svg" width="500" height="500" version="1.1" xmlns="http://www.w3.org/2000/svg" xmlns:xlink="http://www.w3.org/1999/xlink" x="0px" y="0px" viewBox="0 0 250 250" style="enable-background:new 0 0 250 250; background-color:#141414;" xml:space="preserve">
  <style type="text/css"> .st0{fill:#5B5B5B;}.st1{fill:#7F7F7F;}.st2{fill:#FFEC5F;}.st3{fill:#b2dfdb;}.st4{font-family:'Roboto Condensed';}.st5{font-size:11px;}.st6{fill:#9b7653; stroke: #e2e2e2; stroke-width: 0.5;}.st7{fill:#D3D3D3;stroke:#FFFFFF;stroke-width:0.75;}.st8{fill:none;stroke:#c2c2c2;stroke-width:0.75;}.st9{fill:#D3D3D3}
  </style>
  <g id="field_1_">
    <path id="Outfield" class="st6" d="M28.2,108.8l-1.2-3.7l1-2.4l1-2.5l1-2.5l1-2.6l1.1-2.6l1.1-2.7l1.1-2.7l1.4-2.4l2.1-1.5l2.1-1.5l2.1-1.5l2.1-1.5l2.1-1.5l2.1-1.5l2.1-1.5l2.2-1.5l2.2-1.5l2.2-1.5l2.2-1.5l2.2-1.5l2.2-1.5l2.2-1.5l2.2-1.5l2.2-1.5l2.3-1.5L75,58l2.3-1.6l2.3-1.6l2.4-1.6l2.4-1.6l2.4-1.6l2.4-1.7l2.5-1.7l2.5-1.7l2.6-1.7l2.6-1.8l2.6-1.8l2.7-1.8l2.7-1.9l2.8-1.9l3-0.2l3,0.8l3,0.8l2.9,0.8l2.9,0.8l2.9,0.8l2.9,0.8l2.8,0.8l2.8,0.8l2.8,0.8l2.8,0.8l2.8,0.8l2.7,0.7l2.7,0.7l2.7,0.7l2.7,0.7l2.7,0.7l2.7,0.7l2.7,0.7l2.7,0.7l2.7,0.7l2.7,0.7l2.7,0.7l2.7,0.7l2.4,1.5l1.9,2.8l1.9,2.7l1.8,2.7l1.8,2.6l1.7,2.6l1.7,2.5l1.7,2.5l1.6,2.4l1.6,2.4l1.6,2.3l1.6,2.3l1.5,2.3l1.5,2.2l1.5,2.2l1.5,2.2l1.4,2.1l1.4,2.1l1.4,2.1l1.4,2.1l1.4,2l1.4,2l1.4,2l1.3,2l1.3,2l1.3,1.9c0,0,6.8,7.1,3.7,11.7c-1.3,1.9-9.2-0.5-10.9,2c-17.6,25.7-55.1,78.8-62,88.6c-9.2,13.1-30.7,24.7-49.6-2.1C80.6,183.1,28.2,108.8,28.2,108.8z">
    </path>
    <path id="grass" class="st3" d="M125.7,221.5c-7.4,0-15.3-7.4-21.5-16.2c-17.6-24.7-63.2-90.6-69.7-99.9l7-14.7l0.2-0.4l72-48.3l62.3,17.7l34.9,50.8v3.5c-12.3,18.9-58.8,83.2-66.6,94.2C140.8,213.3,133.6,221.5,125.7,221.5z">
    </path>
    <path id="infield_sand_2_" class="st6" d="M163,165.8c-0.2,0.2-6-28.1-37.1-28.1c-33.4,0-39,25.5-39.5,28.1l-0.4,0.4l14.8,14.8l0.7-0.7l18.2,17.9c-0.7,1-1.1,2.2-1.1,3.6c0,1.2,0.4,2.4,1,3.4c0,0,0,0,0,0.1c1.1,1.8,3.1,3,5.4,3c3.5,0,6.4-2.9,6.4-6.4c0-1.5-0.5-2.8-1.3-3.9l18.7-17.7l1.5,0.5l13.5-13.5L163,165.8z M128.6,196.7c-1-0.7-2.3-1.2-3.7-1.2c-1.5,0-2.8,0.5-3.9,1.3l-17.6-18.2c0,0,6.2-5.6,2.7-10.2l17.4-14.5c0.5-0.3,1.1-0.4,1.8-0.4c0.9,0,1.7,0.5,2.3,1.1c0,0,0.1,0,0.1,0.1l16.2,15.5c-0.5,1,0.1,6.3,3,8.9L128.6,196.7z">
    </path>
  </g>
  <g id="persistent_2_">
    <g id="mound_2_">
      <path id="pitching-mound_2_" class="st6" d="M122.5,174.7c-1.5,1.5-1.5,3.9,0,5.4s3.9,1.5,5.4,0c1.5-1.5,1.5-3.9,0-5.4C126.5,173.2,124,173.2,122.5,174.7z">
      </path>
      <rect id="pitching-rubber_2_" x="123.2" y="176.6" class="st7" width="4" height="1.6">
      </rect>
    </g>
    <g id="lines_2_">
      <line id="left-foul-line_2_" class="st8" x1="125.2" y1="203.2" x2="27" y2="105.1">
      </line>
      <line id="right-foul-line_3_" class="st8" x1="125.2" y1="203.2" x2="218.5" y2="109.8">
      </line>
    </g>
    <g id="bases_2_">
      <rect id="third-base_2_" x="98.4" y="174.5" transform="matrix(0.7073 -0.7069 0.7069 0.7073 -95.1992 122.1442)" class="st9" width="3" height="3">
      </rect>
      <rect id="first-base_2_" x="148.9" y="174.5" transform="matrix(0.7073 -0.7069 0.7069 0.7073 -80.4168 157.8396)" class="st9" width="3" height="3">
      </rect>
      <rect id="second-base_2_" x="123.7" y="149.3" transform="matrix(0.707 -0.7073 0.7073 0.707 -69.9813 132.7504)" class="st9" width="3" height="3">
      </rect>
      <polygon id="home_2_" class="st7" points="126.7,201.8 125.2,203.4 123.7,201.8 123.7,200.3 126.7,200.3 ">
      </polygon>
    </g>
  </g>
</svg>
