<svg transform="translate(-900,-1100) scale(4)" id="bam-evp-field-svg" width="500" height="500" version="1.1" xmlns="http://www.w3.org/2000/svg" xmlns:xlink="http://www.w3.org/1999/xlink" x="0px" y="0px" viewBox="0 0 250 250" style="enable-background:new 0 0 250 250; background-color:#141414;" xml:space="preserve">
  <style type="text/css"> .st0{fill:#5B5B5B;}.st1{fill:#7F7F7F;}.st2{fill:#FFEC5F;}.st3{fill:#b2dfdb;}.st4{font-family:'Roboto Condensed';}.st5{font-size:11px;}.st6{fill:#9b7653; stroke: #e2e2e2; stroke-width: 0.5;}.st7{fill:#D3D3D3;stroke:#FFFFFF;stroke-width:0.75;}.st8{fill:none;stroke:#c2c2c2;stroke-width:0.75;}.st9{fill:#D3D3D3}
  </style>
  <g id="field" transform="translate(250 420) scale(0.98 -0.98)">
    <path id="Outfield_1_" class="st6" d="M-147.3,207c-3.5,1.8-26.4,35.5-29.7,40.3l-9.4,27.4l-39.4,39.5l-0.2,5.6l0.6,2.9l0.6,2.9l1.3,2.3l1.8,1.8l1.8,1.8l1.8,1.8l1.8,1.8l1.8,1.8l1.8,1.8l1.8,1.8l1.8,1.8l1.9,1.8l1.9,1.8l1.9,1.8l1.9,1.9l1.9,1.9l1.9,1.9l2,1.9l2,1.9l2,1.9l2,2l2.1,2l2.1,2l2.1,2.1l2.1,2.1l2.2,2.1l2.2,2.2l2.2,2.2l2.3,2.2l2.4,2.2l2.7,0.9l2.8,0.8l2.8,0.8l2.8,0.8l2.8,0.8l2.8,0.8l2.8,0.8l2.8,0.8l2.8,0.9l2.9,0.9l2.9,0.9l2.9,0.9l2.9,0.9l3,0.9l3,0.9l3-0.7l2.9-1.1l2.9-1.1l2.9-1.1l2.9-1.1l2.8-1.2l2.8-1.2l2.8-1.2l2.7-1.3l2.7-1.3l2.7-1.3l2.6-1.4l2.6-1.4l2.5-1.4l2.5-1.5l2.4-1.6l2.4-1.6l2.4-1.6l2.4-1.6l2.3-1.6l2.2-1.7l2.2-1.7l2.2-1.7l2.1-1.8l2.1-1.8l2.1-1.8l2-1.9l1.9-1.9l1.9-1.9l1.9-1.9l1.9-1.9l1.8-1.9l1.7-2l1.7-2l1.7-2l1.7-2l1.7-1.9l1.7-1.9l1.6-1.9l1.6-1.9l1.6-1.9l1.5-2l1.1-2.4l1.2-2.3l1.3-2.2l-1.1-11.6c-2-3-28.4-29.5-28.4-29.5s-19.8-38.8-24.8-45.8c-5-7.1-20.4-27.4-27.4-30.8c-7-3.3-11.6-3.7-17.1-3C-142.3,199.6-147.3,207-147.3,207z">
    </path>
    <path id="grass_1_" class="st3" d="M-124.7,205.9c-0.9,0-1.9,0.1-3.2,0.2c-8.6,1-12.2,4.9-12.8,5.5l-1.1,1.8l-1.2,0.4c-1.9,2-7.7,9.3-26.2,36.2l-0.5,0.8l-9.7,28.2l-38.5,38.6l-0.1,1.4l0.7,3.5l0.1,0.2l50.3,49l1,0.9l1,0.3l2.6,0.8l34.9,10.5l0.4-0.1l11-4.1l2.7-1.1l2.7-1.1l2.6-1.1l7.7-3.7l2.4-1.3l2.5-1.4l2.5-1.3l2.2-1.3l7.1-4.6l2.2-1.5l2.1-1.5l4.3-3.2l2-1.6l2.1-1.7l2.1-1.7l1.9-1.6l1.8-1.7l7.5-7.3l1.6-1.7l6.7-7.8l3.4-3.9l1.6-1.9l3.1-3.6l0.9-1.2l0.8-1.6l1.3-2.6l0.1-0.1l-0.6-6.5c-4-4.4-15.7-16.4-26.3-27l-0.9-0.9l-0.6-1.1c-7.5-14.8-20.8-40-24.2-44.8c-9.5-13.3-20.8-26.5-24.3-28.2C-119.9,206.2-122.5,205.9-124.7,205.9z">
    </path>
    <path id="infield_sand_1_" class="st6" d="M-88.8,259.4c-0.2-0.2-6.1,28.7-37.9,28.7c-34.1,0-39.8-26-40.3-28.7l-0.4-0.4l15.1-15.1l0.7,0.7l18.6-18.3c-0.7-1-1.1-2.2-1.1-3.7c0-1.2,0.4-2.4,1-3.5c0,0,0,0,0-0.1c1.1-1.8,3.2-3.1,5.5-3.1c3.6,0,6.5,3,6.5,6.5c0,1.5-0.5,2.9-1.3,4l19.1,18.1l1.5-0.5l13.8,13.8L-88.8,259.4z M-123.9,227.8c-1,0.7-2.3,1.2-3.8,1.2c-1.5,0-2.9-0.5-4-1.3l-18,18.6c0,0,6.3,5.7,2.8,10.4l17.8,14.8c0.5,0.3,1.1,0.4,1.8,0.4c0.9,0,1.7-0.5,2.3-1.1c0,0,0.1,0,0.1-0.1l16.5-15.8c-0.5-1,0.1-6.4,3.1-9.1L-123.9,227.8z">
    </path>
  </g>
  <g id="persistent_1_">
    <g id="mound_1_">
      <path id="pitching-mound_1_" class="st6" d="M122.5,174.7c-1.5,1.5-1.5,3.9,0,5.4s3.9,1.5,5.4,0c1.5-1.5,1.5-3.9,0-5.4C126.5,173.2,124,173.2,122.5,174.7z">
      </path>
      <rect id="pitching-rubber_1_" x="123.2" y="176.6" class="st7" width="4" height="1.6">
      </rect>
    </g>
    <g id="lines_1_">
      <line id="left-foul-line_1_" class="st8" x1="125.2" y1="203.2" x2="28.1" y2="106.1">
      </line>
      <line id="right-foul-line_2_" class="st8" x1="125.2" y1="203.2" x2="220.7" y2="107.6">
      </line>
    </g>
    <g id="bases_1_">
      <rect id="third-base_1_" x="98.4" y="174.5" transform="matrix(0.7073 -0.7069 0.7069 0.7073 -95.1992 122.1442)" class="st9" width="3" height="3">
      </rect>
      <rect id="first-base_1_" x="148.9" y="174.5" transform="matrix(0.7073 -0.7069 0.7069 0.7073 -80.4168 157.8396)" class="st9" width="3" height="3">
      </rect>
      <rect id="second-base_1_" x="123.7" y="149.3" transform="matrix(0.707 -0.7073 0.7073 0.707 -69.9813 132.7504)" class="st9" width="3" height="3">
      </rect>
      <polygon id="home_1_" class="st7" points="126.7,201.8 125.2,203.4 123.7,201.8 123.7,200.3 126.7,200.3 ">
      </polygon>
    </g>
  </g>
</svg>
