<svg transform="translate(-900,-1100) scale(4)" id="bam-evp-field-svg" width="500" height="500" version="1.1" xmlns="http://www.w3.org/2000/svg" xmlns:xlink="http://www.w3.org/1999/xlink" x="0px" y="0px" viewBox="0 0 250 250" style="enable-background:new 0 0 250 250; background-color:#141414;" xml:space="preserve">
  <style type="text/css"> .st0{fill:#5B5B5B;}.st1{fill:#7F7F7F;}.st2{fill:#FFEC5F;}.st3{fill:#b2dfdb;}.st4{font-family:'Roboto Condensed';}.st5{font-size:11px;}.st6{fill:#9b7653; stroke: #e2e2e2; stroke-width: 0.5;}.st7{fill:#D3D3D3;stroke:#FFFFFF;stroke-width:0.75;}.st8{fill:none;stroke:#c2c2c2;stroke-width:0.75;}.st9{fill:#D3D3D3}
  </style>
  <g id="field" transform="translate(0 0) scale(1)">
    <path id="Outfield_1_" class="st6" d="M19.4,105l3.4-4l1.6-2l1.6-2l1.6-2l1.6-2l1.7-2l1.7-2l1.7-2l1.7-2l1.7-2l1.7-2.1l1.7-2.1l1.8-2.1l1.8-2.1l1.8-2.1l1.8-2.2l1.8-2.2l1.9-2.2l1.9-2.3l1.9-2.3l2-2.3l2-2.4l2-2.4l2.1-2.4l2.1-2.5l2.1-2.5l2.2-2.6l2.2-2.6l2.3-2.7l2.3-2.8l2.7-1.8l3.1-0.3l3.1-0.3l3-0.3l3-0.3l3-0.3l3-0.3l3-0.3l3-0.3l3-0.3l3-0.3l3-0.3l3-0.3l3-0.3l3-0.3l3-0.3l3-0.3l3-0.3l3-0.3l3.1-0.3l3.1-0.3l3.1-0.3l3.1-0.2l3,1l2.7,2.3l2.7,2.2l2.6,2.2l2.6,2.2l2.5,2.1l2.5,2.1l2.4,2l2.4,2l2.4,2l2.3,1.9l2.3,1.9l2.3,1.9l2.2,1.9l2.2,1.8l2.2,1.8l2.2,1.8l2.1,1.8l2.1,1.8l2.1,1.8l2.1,1.7l2.1,1.7l2.1,1.7l2,1.7l2,1.7l2,1.7l2,1.7l2,1.7l2,1.7l2,1.7l2,1.7l2,1.7l2,1.7l2,1.7l2,1.7l2,1.7l1,2.7l0.3,3.3l0.2,5.8l-21.5,21.6l0.4,3.7L189,160.3l-45.2,53.4c0,0-7,9.9-18.9,9.9s-15.4-5.8-19-8.7l-46.1-52.7l-23.6-41.3L19.4,105z">
    </path>
    <path id="grass_1_" class="st3" d="M125,215.6c-6.6,0-8.8-3.1-11.6-5.8c-0.2-0.2-3.1-0.7-5.9-2.6c-4.1-2.9-40.8-49.4-40.8-49.4l-16.6-29.7l-19.7-23.7l3.5-4.2l48.7-58l0,0l58.4-5.1l3.1-0.3l1.4-0.1l0,0l74.4,62.2l0.2,1.8l0.1,2.1l-21.7,21.8l1.5,6.8l-17.3,28c0,0-39.4,45.9-41.2,47.4c-1.8,1.5-6.4,2.6-6.4,2.6C134.9,209.7,132,215.6,125,215.6z">
    </path>
    <path id="infield_sand_1_" class="st6" d="M163,165.8c-0.2,0.2-6-28.1-37.1-28.1c-33.4,0-39,25.5-39.5,28.1l-0.4,0.4l14.8,14.8l0.7-0.7l18.2,17.9c-0.7,1-1.1,2.2-1.1,3.6c0,1.2,0.4,2.4,1,3.4c0,0,0,0,0,0.1c1.1,1.8,3.1,3,5.4,3c3.5,0,6.4-2.9,6.4-6.4c0-1.5-0.5-2.8-1.3-3.9l18.7-17.7l1.5,0.5l13.5-13.5L163,165.8z M128.6,196.7c-1-0.7-2.3-1.2-3.7-1.2c-1.5,0-2.8,0.5-3.9,1.3l-17.6-18.2c0,0,6.2-5.6,2.7-10.2l17.4-14.5c0.5-0.3,1.1-0.4,1.8-0.4c0.9,0,1.7,0.5,2.3,1.1c0,0,0.1,0,0.1,0.1l16.2,15.5c-0.5,1,0.1,6.3,3,8.9L128.6,196.7z">
    </path>
  </g>
  <g id="persistent_1_">
    <g id="mound_1_">
      <path id="pitching-mound_1_" class="st6" d="M122.5,174.7c-1.5,1.5-1.5,3.9,0,5.4s3.9,1.5,5.4,0c1.5-1.5,1.5-3.9,0-5.4C126.5,173.2,124,173.2,122.5,174.7z">
      </path>
      <rect id="pitching-rubber_1_" x="123.2" y="176.6" class="st7" width="4" height="1.6">
      </rect>
    </g>
    <g id="lines_1_">
      <polyline id="left-foul-line_2_" class="st8" points="125.2,203.2 28.7,106.7 22.8,101 ">
      </polyline>
      <polyline id="right-foul-line_1_" class="st8" points="125.2,203.2 221.7,106.6 228,100.2 ">
      </polyline>
    </g>
    <g id="bases_1_">
      <rect id="third-base_1_" x="98.4" y="174.5" transform="matrix(0.7073 -0.7069 0.7069 0.7073 -95.1992 122.1442)" class="st9" width="3" height="3">
      </rect>
      <rect id="first-base_1_" x="148.9" y="174.5" transform="matrix(0.7073 -0.7069 0.7069 0.7073 -80.4168 157.8396)" class="st9" width="3" height="3">
      </rect>
      <rect id="second-base_1_" x="123.7" y="149.3" transform="matrix(0.707 -0.7073 0.7073 0.707 -69.9813 132.7504)" class="st9" width="3" height="3">
      </rect>
      <polygon id="home_1_" class="st7" points="126.7,201.8 125.2,203.4 123.7,201.8 123.7,200.3 126.7,200.3 ">
      </polygon>
    </g>
  </g>
</svg>
