<svg transform="translate(-900,-1100) scale(4)" id="bam-evp-field-svg" width="500" height="500" version="1.1" xmlns="http://www.w3.org/2000/svg" xmlns:xlink="http://www.w3.org/1999/xlink" x="0px" y="0px" viewBox="0 0 250 250" style="enable-background:new 0 0 250 250; background-color:#141414;" xml:space="preserve">
  <style type="text/css"> .st0{fill:#5B5B5B;}.st1{fill:#7F7F7F;}.st2{fill:#FFEC5F;}.st3{fill:#b2dfdb;}.st4{font-family:'Roboto Condensed';}.st5{font-size:11px;}.st6{fill:#9b7653; stroke: #e2e2e2; stroke-width: 0.5;}.st7{fill:#D3D3D3;stroke:#FFFFFF;stroke-width:0.75;}.st8{fill:none;stroke:#c2c2c2;stroke-width:0.75;}.st9{fill:#D3D3D3}
  </style>
  <g id="field" transform="translate(0 0) scale(1)">
    <path id="Outfield_1_" class="st6" d="M125.7,222.2c-11.4,0-19.8-9.7-19.8-9.7l-45.4-55.1l1-12.9l-31.3-31.3l2.3-2.7L34,109l1.6-1.6l1.6-1.6l1.6-1.6l1.6-1.6l1.6-1.6l1.6-1.6l1.7-1.6l1.7-1.6l1.7-1.6l1.7-1.7l1.7-1.7l1.7-1.7l1.7-1.7l1.8-1.7l1.9-1.5l1.9-1.5l1.9-1.5l1.9-1.5l1.9-1.5l1.9-1.6L67,66.5l1.9-2.2l2-2.2l2-2.2l21.4-15.2l2.5-2l2.6-2.1l2.6-2.1l2.7-2.1l2.7-2.2l2.9-1.4l3,0l3,0l3,0l3,0l3,0l3,0l3,0l3,0l3,0l3,0l3,0l3,0l3,0l3,0l3.1,0l2.6,2.5l2.4,3.1l2.6,1.8l2.3,2.8l2.2,2.8l2.2,2.7l2.1,2.6l2.1,2.6l2,2.5l2,2.5l2.5,0.9l2.7,0.4l1.9,2.4l1.9,2.3l1.8,2.3l1.8,2.3l1.8,2.2l1.8,2.2l1.7,2.2l1.7,2.1l1.7,2.1l1.7,2.1l1.6,2l1.6,2l1.6,2l1.6,2l1.6,2l1.6,1.9l1.6,1.9l1.5,1.9l1.5,1.9l1.5,1.9l1.5,1.9l1.5,1.9l1.5,1.9l1.5,1.6l-23.5,23.2c0,0,1.8,12.2-6.7,20.6c-5.3,5.2-47.7,59.9-47.7,59.9S137.1,222.2,125.7,222.2z">
    </path>
    <path id="grass_1_" class="st3" d="M125.7,214.2c-7.2,0-13.3-6.3-13.7-6.9l-45.6-54.4l1-10.4l-22.1-22.6l0-10.7l16-15.7l1.5-1.4L78.9,79l-1.8-12.1L112,40.7l39.8,0.1l21,24.6l5.3,2l0.5,0.1l30.4,37.8l-0.7,6.3l-13.5,12.9c0,0,2.1,9-5.1,19c-4.4,6.2-44.4,54.9-51.5,64.1l0,0C138.2,207.7,132.9,214.2,125.7,214.2z">
    </path>
    <path id="infield_sand" class="st6" d="M163,165.8c-0.2,0.2-6-28.1-37.1-28.1c-33.4,0-39,25.5-39.5,28.1l-0.4,0.4l14.8,14.8l0.7-0.7l15.5,15.3c-0.4,1.1-0.7,2.2-0.7,3.4c0,0.8,0.1,1.5,0.3,2.2l-9.2,3.7l4.6,5l7.1-4.4c0.5,0.4,1,0.8,1.6,1.2c1.1,1,2.6,1.6,4.2,1.6c1.3,0,2.5-0.4,3.5-1.1c1.1-0.5,2.2-1.1,3-2l7.6,4.7l4.6-5l-9.8-4c0.1-0.6,0.2-1.3,0.2-1.9c0-1.4-0.3-2.7-0.9-3.9l15.6-14.8l1.5,0.5l13.5-13.5L163,165.8z M130.7,194.7H119l-15.6-16.1c0,0,6.2-5.6,2.7-10.2l17.4-14.5c0.5-0.3,1.1-0.4,1.8-0.4c0.9,0,1.7,0.5,2.3,1.1c0,0,0.1,0,0.1,0.1l16.2,15.5c-0.5,1,0.1,6.3,3,8.9L130.7,194.7z">
    </path>
  </g>
  <g id="persistent_1_">
    <g id="mound_1_">
      <path id="pitching-mound_1_" class="st6" d="M122.5,174.7c-1.5,1.5-1.5,3.9,0,5.4s3.9,1.5,5.4,0c1.5-1.5,1.5-3.9,0-5.4C126.5,173.2,124,173.2,122.5,174.7z">
      </path>
      <rect id="pitching-rubber_1_" x="123.2" y="176.6" class="st7" width="4" height="1.6">
      </rect>
    </g>
    <g id="lines_1_">
      <line id="left-foul-line_2_" class="st8" x1="125.2" y1="203.2" x2="32.5" y2="110.5">
      </line>
      <line id="right-foul-line_2_" class="st8" x1="125.2" y1="203.2" x2="220.9" y2="107.4">
      </line>
    </g>
    <g id="bases_1_">
      <rect id="third-base_1_" x="98.4" y="174.5" transform="matrix(0.7073 -0.7069 0.7069 0.7073 -95.1992 122.1442)" class="st9" width="3" height="3">
      </rect>
      <rect id="first-base_1_" x="148.9" y="174.5" transform="matrix(0.7073 -0.7069 0.7069 0.7073 -80.4168 157.8396)" class="st9" width="3" height="3">
      </rect>
      <rect id="second-base_1_" x="123.7" y="149.3" transform="matrix(0.707 -0.7073 0.7073 0.707 -69.9813 132.7504)" class="st9" width="3" height="3">
      </rect>
      <polygon id="home_1_" class="st7" points="126.7,201.8 125.2,203.4 123.7,201.8 123.7,200.3 126.7,200.3 ">
      </polygon>
    </g>
  </g>
</svg>
