<svg transform="translate(-900,-1100) scale(4)" id="bam-evp-field-svg" width="500" height="500" version="1.1" xmlns="http://www.w3.org/2000/svg" xmlns:xlink="http://www.w3.org/1999/xlink" x="0px" y="0px" viewBox="0 0 250 250" style="enable-background:new 0 0 250 250; background-color:#141414;" xml:space="preserve">
  <style type="text/css"> .st0{fill:#5B5B5B;}.st1{fill:#7F7F7F;}.st2{fill:#FFEC5F;}.st3{fill:#b2dfdb;}.st4{font-family:'Roboto Condensed';}.st5{font-size:11px;}.st6{fill:#9b7653; stroke: #e2e2e2; stroke-width: 0.5;}.st7{fill:#D3D3D3;stroke:#FFFFFF;stroke-width:0.75;}.st8{fill:none;stroke:#c2c2c2;stroke-width:0.75;}.st9{fill:#D3D3D3}
  </style>
  <g id="field" transform="translate(250 420) scale(0.98 -0.98)">
    <path id="Outfield_1_" class="st6" d="M-26.2,318.5l-37.4-37.7l-5.4-28.5c0,0-22.6-33-28.4-39.5c-7.9-11.7-21.6-12.8-29.2-12.8c-12.3,0-22.5,2-31.3,13.3l-28.2,38.6l-7.6,30.8l-35.9,35.8l1.5,3.4l1.2,2.3l1.2,2.4l1.2,2.4l1.2,2.4l1.3,2.5l1.3,2.5l1.3,2.5l1.3,2.6l1.3,2.6l2.1,1.6l2.2,1.5l2.2,1.5l2.2,1.5l2.2,1.4l2.3,1.4l2.3,1.4l2.3,1.4l2.3,1.4l2.3,1.4l2.3,1.4l2.3,1.4l2.3,1.4l2.3,1.4l2.3,1.4l2.4,1.4l2.4,1.4l2.4,1.5l2.4,1.5l2.4,1.7l2.4,1.7l2.4,1.7l2.5,1.7l2.5,1.7l2.5,1.8l2.6,1.8l2.6,1.8l2.7,1.9l2.7,1.9l2.8,1.9l2.8,2l2.9,1.5l3,0l3,0l3,0l3,0l3,0l3,0l3,0l3-0.5l2.9-1.7l2.8-1.7l2.8-1.7l2.7-1.6l2.7-1.6l2.7-1.6l2.6-1.6l2.6-1.6l2.6-1.5l2.5-1.5l2.5-1.5l2.5-1.5l2.5-1.5l2.4-1.5l2.4-1.5l2.4-1.4l2.4-1.4l2.4-1.4l2.7-0.7l2.7-0.7l2.7-0.8l2.7-0.8l2.7-0.8l2.7-0.8l1.8-2.5l1.7-2.5l1.7-2.4l1.7-2.4l1.7-2.4l1.6-2.3l1.6-2.3l1.6-2.3l1.6-2.2l1.4-2.4l0.4-3.6l0.4-3.5l1.5-2.1l1.5-2.1l1.4-2.1l1.4-2.1l1.4-2L-26.2,318.5z">
    </path>
    <path id="grass_1_" class="st3" d="M-126.7,208.1c-10.9,0-18.1,1.6-24.7,10.1l-27.2,37.2l-7.7,31.4l-33.5,33.3l9.4,18.5l0.5,0.4l6.3,4.4l2,1.3l30.1,18.3l2.6,1.6l30.6,21.4l0.7,0.4l18.6,0l0.8-0.1l42.9-25.7l3.3-1.9l6.3-1.8l2.7-0.7l5.2-1.5l13.2-18.8l0.4-0.6l0.9-7.4l2.6-3.8l3.6-5.1l-33.9-34.2l-5.5-29.3c-9-13.1-22.9-32.9-26.8-37.2l-0.4-0.4l-0.3-0.5C-108.4,211.1-115.7,208.1-126.7,208.1z">
    </path>
    <path id="infield_sand" class="st6" d="M-88.8,259.4c-0.2-0.2-6.1,28.7-37.9,28.7c-34.1,0-39.8-26-40.3-28.7l-0.4-0.4l15.1-15.1l0.7,0.7l18.6-18.3c-0.7-1-1.1-2.2-1.1-3.7c0-1.2,0.4-2.4,1-3.5c0,0,0,0,0-0.1c1.1-1.8,3.2-3.1,5.5-3.1c3.6,0,6.5,3,6.5,6.5c0,1.5-0.5,2.9-1.3,4l19.1,18.1l1.5-0.5l13.8,13.8L-88.8,259.4z M-123.9,227.8c-1,0.7-2.3,1.2-3.8,1.2c-1.5,0-2.9-0.5-4-1.3l-18,18.6c0,0,6.3,5.7,2.8,10.4l17.8,14.8c0.5,0.3,1.1,0.4,1.8,0.4c0.9,0,1.7-0.5,2.3-1.1c0,0,0.1,0,0.1-0.1l16.5-15.8c-0.5-1,0.1-6.4,3.1-9.1L-123.9,227.8z">
    </path>
  </g>
  <g id="persistent">
    <g id="mound">
      <path id="pitching-mound" class="st6" d="M122.5,174.7c-1.5,1.5-1.5,3.9,0,5.4s3.9,1.5,5.4,0c1.5-1.5,1.5-3.9,0-5.4C126.5,173.2,124,173.2,122.5,174.7z">
      </path>
      <rect id="pitching-rubber" x="123.2" y="176.6" class="st7" width="4" height="1.6">
      </rect>
    </g>
    <g id="lines">
      <line id="left-foul-line_2_" class="st8" x1="125.2" y1="203.2" x2="26.5" y2="104.6">
      </line>
      <line id="right-foul-line" class="st8" x1="125.2" y1="203.2" x2="222.3" y2="106">
      </line>
    </g>
    <g id="bases">
      <rect id="third-base" x="98.4" y="174.5" transform="matrix(0.7073 -0.7069 0.7069 0.7073 -95.1992 122.1442)" class="st9" width="3" height="3">
      </rect>
      <rect id="first-base" x="148.9" y="174.5" transform="matrix(0.7073 -0.7069 0.7069 0.7073 -80.4168 157.8396)" class="st9" width="3" height="3">
      </rect>
      <rect id="second-base" x="123.7" y="149.3" transform="matrix(0.707 -0.7073 0.7073 0.707 -69.9813 132.7504)" class="st9" width="3" height="3">
      </rect>
      <polygon id="home" class="st7" points="126.7,201.8 125.2,203.4 123.7,201.8 123.7,200.3 126.7,200.3 ">
      </polygon>
    </g>
  </g>
</svg>
